# xmcd
#
# Track frame offsets: 
#        150
#        63150
#        99225
#        127425
#        203625
#        250350
#
# Disc length: 3964 seconds
#
# Revision: 3
# Processed by: cddbd v1.5.2PL0 Copyright (c) Steve Scherf et al.
# Submitted via: ExactAudioCopy v1.0b1
#
DISCID=520f7a06
DTITLE=Marc-André Hamelin - Godowsky: Piano Sonata in e minor - Passaca
DTITLE=glia
DYEAR=2001
DGENRE=Piano
TTITLE0=Sonata, piano, e minor   Allegro non troppo, ma appassionato 
TTITLE1=Sonata, piano, e minor   Andante cantabile 
TTITLE2=Sonata, piano, e minor   Allegretto vivace e scherzando 
TTITLE3=Sonata, piano, e minor   Allegretto grazioso e dolce 
TTITLE4=Sonata, piano, e minor   Retrospect: Lento, mesto - Larghetto 
TTITLE4=lamentoso - Fuga: Molto espressivo (l'istesso tempo) - Maestos
TTITLE4=o, 
TTITLE5=Passacaglia, piano
EXTD=
EXTT0=
EXTT1=
EXTT2=
EXTT3=
EXTT4=
EXTT5=
PLAYORDER=
